# xmcd
#
# Track frame offsets:
#	150
#	64383
#	115778
#	157003
#	196848
#
# Disc length: 3166 seconds
#
# Revision: 1
# Processed by: cddbd v1.5.2PL0 Copyright (c) Steve Scherf et al.
# Submitted via: audiograbber 1.83.01
#
DISCID=400c5c05
DTITLE=Mick Taylor Band - Little Red Rooster
DYEAR=2007
DGENRE=Blues
TTITLE0=Catfish Blues
TTITLE1=Red House
TTITLE2=Little Red Rooster
TTITLE3=You Shook Me
TTITLE4=I Wonder Why
EXTD=
EXTT0=
EXTT1=
EXTT2=
EXTT3=
EXTT4=
PLAYORDER=
